<svg version="1.1" xmlns="http://www.w3.org/2000/svg" viewBox="0 0 1497.707957188863 876.3016786087304" width="1497.707957188863" height="876.3016786087304">
  <!-- svg-source:excalidraw -->
  
  <defs>
    <style class="style-fonts">
      @font-face {
        font-family: "Virgil";
        src: url("https://excalidraw.com/Virgil.woff2");
      }
      @font-face {
        font-family: "Cascadia";
        src: url("https://excalidraw.com/Cascadia.woff2");
      }
      @font-face {
        font-family: "Assistant";
        src: url("https://excalidraw.com/Assistant-Regular.woff2");
      }
    </style>
    
  </defs>
  <rect x="0" y="0" width="1497.707957188863" height="876.3016786087304" fill="#ffffff"></rect><g transform="translate(633.0413006947223 26.555879598855995) rotate(0 97.92500305175781 22.5)"><text x="0" y="0" font-family="Virgil, Segoe UI Emoji" font-size="36px" fill="#1e1e1e" text-anchor="start" style="white-space: pre;" direction="ltr" dominant-baseline="text-before-edge">CAS-Dienst</text></g><g transform="translate(57.04130069472228 522.555879598856) rotate(0 142.875 22.5)"><text x="0" y="0" font-family="Virgil, Segoe UI Emoji" font-size="36px" fill="#1e1e1e" text-anchor="start" style="white-space: pre;" direction="ltr" dominant-baseline="text-before-edge">Prozedur-Aufruf</text></g><g transform="translate(1205.0413006947224 242.555879598856) rotate(0 134.61666870117188 22.5)"><text x="0" y="0" font-family="Virgil, Segoe UI Emoji" font-size="36px" fill="#1e1e1e" text-anchor="start" style="white-space: pre;" direction="ltr" dominant-baseline="text-before-edge">SQL-Datenbank</text></g><g transform="translate(89.04130069472228 263.555879598856) rotate(0 98.95833587646484 22.5)"><text x="0" y="0" font-family="Virgil, Segoe UI Emoji" font-size="36px" fill="#1e1e1e" text-anchor="start" style="white-space: pre;" direction="ltr" dominant-baseline="text-before-edge">View-Aufruf</text></g><g stroke-linecap="round"><g transform="translate(47.87695137483658 568.0432454655692) rotate(0 158.8384917265862 -0.8718659465286578)"><path d="M0.28 0.26 C53.12 0.07, 264.95 -0.18, 317.9 -0.57 M-1.04 -0.65 C51.6 -1.19, 263.99 -2.03, 317.07 -2.08" stroke="#1e1e1e" stroke-width="2" fill="none"></path></g><g transform="translate(47.87695137483658 568.0432454655692) rotate(0 158.8384917265862 -0.8718659465286578)"><path d="M293.6 6.54 C302.64 3.69, 312.79 0.7, 317.07 -2.08 M293.6 6.54 C300.77 3.81, 305.47 1.92, 317.07 -2.08" stroke="#1e1e1e" stroke-width="2" fill="none"></path></g><g transform="translate(47.87695137483658 568.0432454655692) rotate(0 158.8384917265862 -0.8718659465286578)"><path d="M293.56 -10.57 C302.69 -7.12, 312.86 -3.81, 317.07 -2.08 M293.56 -10.57 C300.65 -8.66, 305.35 -5.92, 317.07 -2.08" stroke="#1e1e1e" stroke-width="2" fill="none"></path></g></g><mask></mask><g transform="translate(633.0413006947223 245.555879598856) rotate(0 173.77499389648438 22.5)"><text x="0" y="0" font-family="Virgil, Segoe UI Emoji" font-size="36px" fill="#1e1e1e" text-anchor="start" style="white-space: pre;" direction="ltr" dominant-baseline="text-before-edge">Authorization-Layer</text></g><g stroke-linecap="round"><g transform="translate(363.0413006947223 310.555879598856) rotate(0 131 -19.922163018781305)"><path d="M-0.03 -0.51 C43.73 -7.17, 218.04 -33.06, 261.87 -39.62" stroke="#1e1e1e" stroke-width="2.5" fill="none" stroke-dasharray="8 10"></path></g><g transform="translate(363.0413006947223 310.555879598856) rotate(0 131 -19.922163018781305)"><path d="M239.89 -27.7 C244.32 -30.8, 250.86 -31.9, 261.87 -39.62" stroke="#1e1e1e" stroke-width="2.5" fill="none"></path></g><g transform="translate(363.0413006947223 310.555879598856) rotate(0 131 -19.922163018781305)"><path d="M237.37 -44.62 C242.46 -43.62, 249.6 -40.63, 261.87 -39.62" stroke="#1e1e1e" stroke-width="2.5" fill="none"></path></g></g><mask></mask><g stroke-linecap="round"><g transform="translate(373.5200539626321 560.2318320379878) rotate(0 127.07551913667413 -128.89807776236702)"><path d="M0.82 0.27 C43.25 -42.68, 212.39 -215.77, 254.79 -258.81" stroke="#1e1e1e" stroke-width="2.5" fill="none" stroke-dasharray="8 10"></path></g><g transform="translate(373.5200539626321 560.2318320379878) rotate(0 127.07551913667413 -128.89807776236702)"><path d="M244.45 -236.05 C248.43 -242.37, 249.62 -248.94, 254.79 -258.81" stroke="#1e1e1e" stroke-width="2.5" fill="none"></path></g><g transform="translate(373.5200539626321 560.2318320379878) rotate(0 127.07551913667413 -128.89807776236702)"><path d="M232.24 -248.02 C240.03 -250.58, 245.15 -253.3, 254.79 -258.81" stroke="#1e1e1e" stroke-width="2.5" fill="none"></path></g></g><mask></mask><g stroke-linecap="round"><g transform="translate(18.947594503223513 310.79707680253534) rotate(0 168 0.5)"><path d="M-0.55 0.23 C55.39 0.4, 280 1.47, 336.25 1.63 M1.37 -0.7 C57.11 -0.93, 279.54 -0.71, 335.43 -0.17" stroke="#1e1e1e" stroke-width="2" fill="none"></path></g><g transform="translate(18.947594503223513 310.79707680253534) rotate(0 168 0.5)"><path d="M311.9 8.28 C320.53 5.82, 329.49 3.99, 335.43 -0.17 M311.9 8.28 C318.51 5.89, 326.68 3.42, 335.43 -0.17" stroke="#1e1e1e" stroke-width="2" fill="none"></path></g><g transform="translate(18.947594503223513 310.79707680253534) rotate(0 168 0.5)"><path d="M311.97 -8.82 C320.66 -5.25, 329.6 -1.05, 335.43 -0.17 M311.97 -8.82 C318.45 -5.88, 326.59 -3.02, 335.43 -0.17" stroke="#1e1e1e" stroke-width="2" fill="none"></path></g></g><mask></mask><g stroke-linecap="round"><g transform="translate(990.0413006947223 271.2952999452847) rotate(0 103 -1.3613284813873179)"><path d="M-1.01 0.9 C33.05 0.52, 170.69 -1.21, 205.17 -1.82" stroke="#1e1e1e" stroke-width="2.5" fill="none" stroke-dasharray="8 10"></path></g><g transform="translate(990.0413006947223 271.2952999452847) rotate(0 103 -1.3613284813873179)"><path d="M181.81 7.08 C191.82 2.64, 200.38 0.52, 205.17 -1.82" stroke="#1e1e1e" stroke-width="2.5" fill="none"></path></g><g transform="translate(990.0413006947223 271.2952999452847) rotate(0 103 -1.3613284813873179)"><path d="M181.55 -10.02 C191.73 -8.2, 200.38 -4.06, 205.17 -1.82" stroke="#1e1e1e" stroke-width="2.5" fill="none"></path></g></g><mask></mask><g transform="translate(23.43496036993679 374.5986889956233) rotate(0 161.0416717529297 22.5)"><text x="0" y="0" font-family="Virgil, Segoe UI Emoji" font-size="36px" fill="#1e1e1e" text-anchor="start" style="white-space: pre;" direction="ltr" dominant-baseline="text-before-edge">X-Prozedur-Aufruf</text></g><g stroke-linecap="round"><g transform="translate(10.587294005975139 421.0860548623366) rotate(0 179.22463528098731 -0.5290376196429634)"><path d="M-0.59 -0.47 C59.24 -0.66, 297.98 -2.02, 357.96 -2.23 M1.31 -1.76 C61.02 -1.76, 297.15 -1.47, 356.76 -1.31" stroke="#1e1e1e" stroke-width="2" fill="none"></path></g><g transform="translate(10.587294005975139 421.0860548623366) rotate(0 179.22463528098731 -0.5290376196429634)"><path d="M333.25 7.2 C337.63 4.67, 341.54 5.08, 356.76 -1.31 M333.25 7.2 C339.65 4.33, 344.31 3.25, 356.76 -1.31" stroke="#1e1e1e" stroke-width="2" fill="none"></path></g><g transform="translate(10.587294005975139 421.0860548623366) rotate(0 179.22463528098731 -0.5290376196429634)"><path d="M333.28 -9.9 C337.5 -8.74, 341.41 -4.63, 356.76 -1.31 M333.28 -9.9 C339.83 -8.61, 344.49 -5.52, 356.76 -1.31" stroke="#1e1e1e" stroke-width="2" fill="none"></path></g></g><mask></mask><g stroke-linecap="round"><g transform="translate(351.0413006947223 433.555879598856) rotate(0 0 43)"><path d="M-0.23 0.3 C-0.24 14.5, -0.18 71.75, -0.23 85.85" stroke="#1e1e1e" stroke-width="2.5" fill="none" stroke-dasharray="8 10"></path></g><g transform="translate(351.0413006947223 433.555879598856) rotate(0 0 43)"><path d="M-8.76 62.35 C-5.7 68.67, -4.02 74.81, -0.23 85.85" stroke="#1e1e1e" stroke-width="2.5" fill="none"></path></g><g transform="translate(351.0413006947223 433.555879598856) rotate(0 0 43)"><path d="M8.34 62.37 C6.55 68.65, 3.36 74.79, -0.23 85.85" stroke="#1e1e1e" stroke-width="2.5" fill="none"></path></g></g><mask></mask><g stroke-linecap="round"><g transform="translate(33.19174244225354 184.13792458979594) rotate(0 167.99999999999997 0.5)"><path d="M1.09 0.68 C57.34 0.91, 281.31 0.8, 337.16 0.9 M0.21 -0.01 C56.43 0.47, 280.93 1.93, 336.82 2.38" stroke="#1e1e1e" stroke-width="2" fill="none"></path></g><g transform="translate(33.19174244225354 184.13792458979594) rotate(0 167.99999999999997 0.5)"><path d="M313.27 10.76 C320.89 10.19, 326.03 6.32, 336.82 2.38 M313.27 10.76 C320.04 7.69, 327.64 5.55, 336.82 2.38" stroke="#1e1e1e" stroke-width="2" fill="none"></path></g><g transform="translate(33.19174244225354 184.13792458979594) rotate(0 167.99999999999997 0.5)"><path d="M313.39 -6.34 C320.9 -2.23, 326.02 -1.41, 336.82 2.38 M313.39 -6.34 C320.24 -3.91, 327.8 -0.55, 336.82 2.38" stroke="#1e1e1e" stroke-width="2" fill="none"></path></g></g><mask></mask><g transform="translate(39.04130069472228 140.555879598856) rotate(0 150.09165954589844 22.5)"><text x="0" y="0" font-family="Virgil, Segoe UI Emoji" font-size="36px" fill="#1e1e1e" text-anchor="start" style="white-space: pre;" direction="ltr" dominant-baseline="text-before-edge">Dateien-Auslesen</text></g><g transform="translate(629.0413006947223 156.555879598856) rotate(0 194.56666564941406 22.5)"><text x="0" y="0" font-family="Virgil, Segoe UI Emoji" font-size="36px" fill="#1e1e1e" text-anchor="start" style="white-space: pre;" direction="ltr" dominant-baseline="text-before-edge">CAS-interne-Resourcen</text></g><g transform="translate(635.0413006947223 539.555879598856) rotate(0 118.29166412353516 22.5)"><text x="0" y="0" font-family="Virgil, Segoe UI Emoji" font-size="36px" fill="#1e1e1e" text-anchor="start" style="white-space: pre;" direction="ltr" dominant-baseline="text-before-edge">Erweiterungen</text></g><g stroke-linecap="round"><g transform="translate(376.0413006947223 563.555879598856) rotate(0 124.5 -2)"><path d="M1.15 -1.11 C42.66 -1.92, 207.35 -4.24, 248.75 -4.68" stroke="#1e1e1e" stroke-width="2.5" fill="none" stroke-dasharray="8 10"></path></g><g transform="translate(376.0413006947223 563.555879598856) rotate(0 124.5 -2)"><path d="M225.37 4.17 C229.8 1.15, 236.82 0.09, 248.75 -4.68" stroke="#1e1e1e" stroke-width="2.5" fill="none"></path></g><g transform="translate(376.0413006947223 563.555879598856) rotate(0 124.5 -2)"><path d="M225.15 -12.93 C229.67 -11.35, 236.75 -7.8, 248.75 -4.68" stroke="#1e1e1e" stroke-width="2.5" fill="none"></path></g></g><mask></mask><g stroke-linecap="round"><g transform="translate(377.0413006947223 186.555879598856) rotate(0 121.5 0.5)"><path d="M-0.69 0.09 C39.83 0.07, 202.88 0, 243.3 0.16" stroke="#1e1e1e" stroke-width="2.5" fill="none" stroke-dasharray="8 10"></path></g><g transform="translate(377.0413006947223 186.555879598856) rotate(0 121.5 0.5)"><path d="M219.79 8.68 C227.3 6.63, 233.13 1.5, 243.3 0.16" stroke="#1e1e1e" stroke-width="2.5" fill="none"></path></g><g transform="translate(377.0413006947223 186.555879598856) rotate(0 121.5 0.5)"><path d="M219.81 -8.42 C227.35 -5.1, 233.17 -4.87, 243.3 0.16" stroke="#1e1e1e" stroke-width="2.5" fill="none"></path></g></g><mask></mask><g stroke-linecap="round"><g transform="translate(640.0333086065317 591.5692536749726) rotate(0 -36.496004744012794 35.66543255839133)"><path d="M-0.44 0.74 C-12.49 11.77, -70.42 55.15, -72.96 66.87 C-75.51 78.59, -25.31 70.28, -15.7 71.08" stroke="#1e1e1e" stroke-width="2.5" fill="none" stroke-dasharray="8 10"></path></g><g transform="translate(640.0333086065317 591.5692536749726) rotate(0 -36.496004744012794 35.66543255839133)"><path d="M-38.68 80.93 C-31.88 78.65, -27.57 75.03, -15.7 71.08" stroke="#1e1e1e" stroke-width="2.5" fill="none"></path></g><g transform="translate(640.0333086065317 591.5692536749726) rotate(0 -36.496004744012794 35.66543255839133)"><path d="M-39.63 63.85 C-32.5 65.75, -27.96 66.31, -15.7 71.08" stroke="#1e1e1e" stroke-width="2.5" fill="none"></path></g></g><mask></mask><g transform="translate(638.0413006947223 651.555879598856) rotate(0 113.61666870117188 22.5)"><text x="0" y="0" font-family="Virgil, Segoe UI Emoji" font-size="36px" fill="#1e1e1e" text-anchor="start" style="white-space: pre;" direction="ltr" dominant-baseline="text-before-edge">QueueService</text></g><g transform="translate(620.0413006947223 759.555879598856) rotate(0 183.56666564941406 22.5)"><text x="0" y="0" font-family="Virgil, Segoe UI Emoji" font-size="36px" fill="#1e1e1e" text-anchor="start" style="white-space: pre;" direction="ltr" dominant-baseline="text-before-edge">ServiceNotfierService</text></g><g stroke-linecap="round"><g transform="translate(880.0413006947223 687.555879598856) rotate(0 74 39.5)"><path d="M0.91 0.97 C25.71 8.82, 129.29 35.32, 147.98 48.15 C166.67 60.97, 118.93 72.91, 113.04 77.92" stroke="#1e1e1e" stroke-width="2.5" fill="none" stroke-dasharray="8 10"></path></g><g transform="translate(880.0413006947223 687.555879598856) rotate(0 74 39.5)"><path d="M130 61.29 C127.77 65.29, 122.41 70.97, 113.04 77.92" stroke="#1e1e1e" stroke-width="2.5" fill="none"></path></g><g transform="translate(880.0413006947223 687.555879598856) rotate(0 74 39.5)"><path d="M136.73 76.08 C132.79 76.66, 125.85 78.86, 113.04 77.92" stroke="#1e1e1e" stroke-width="2.5" fill="none"></path></g></g><mask></mask><g transform="translate(1225.0413006947224 641.555879598856) rotate(0 131.3333282470703 22.5)"><text x="0" y="0" font-family="Virgil, Segoe UI Emoji" font-size="36px" fill="#1e1e1e" text-anchor="start" style="white-space: pre;" direction="ltr" dominant-baseline="text-before-edge">Andere-Dienste</text></g><g stroke-linecap="round"><g transform="translate(886.0413006947223 555.686423307205) rotate(0 168.53717955932416 -130.5652718541745)"><path d="M0.92 0.24 C57.16 -43.12, 281.18 -217.43, 337.29 -261.12" stroke="#1e1e1e" stroke-width="2.5" fill="none" stroke-dasharray="8 10"></path></g><g transform="translate(886.0413006947223 555.686423307205) rotate(0 168.53717955932416 -130.5652718541745)"><path d="M324 -239.94 C328.41 -245.81, 331.89 -251.37, 337.29 -261.12" stroke="#1e1e1e" stroke-width="2.5" fill="none"></path></g><g transform="translate(886.0413006947223 555.686423307205) rotate(0 168.53717955932416 -130.5652718541745)"><path d="M313.5 -253.44 C320.85 -255.48, 327.36 -257.13, 337.29 -261.12" stroke="#1e1e1e" stroke-width="2.5" fill="none"></path></g></g><mask></mask><g transform="translate(75.04130069472228 24.555879598855995) rotate(0 58.46666717529297 22.5)"><text x="0" y="0" font-family="Virgil, Segoe UI Emoji" font-size="36px" fill="#1e1e1e" text-anchor="start" style="white-space: pre;" direction="ltr" dominant-baseline="text-before-edge">Clients</text></g><g transform="translate(1211.0413006947224 16.555879598855995) rotate(0 71.39167022705078 22.5)"><text x="0" y="0" font-family="Virgil, Segoe UI Emoji" font-size="36px" fill="#1e1e1e" text-anchor="start" style="white-space: pre;" direction="ltr" dominant-baseline="text-before-edge">Backend</text></g><g stroke-linecap="round"><g transform="translate(448.0413006947223 16.555879598855995) rotate(0 0.5 425.5)"><path d="M1.37 1.78 C2.04 143.03, 3.54 708.47, 3.49 849.75" stroke="#1e1e1e" stroke-width="1.5" fill="none" stroke-dasharray="1.5 7"></path></g></g><mask></mask><g stroke-linecap="round"><g transform="translate(1127.6099382513303 10.792448599264048) rotate(0 0.5 425.5)"><path d="M-0.77 -0.79 C-0.74 140.52, 2.15 706.22, 2.31 848.52" stroke="#1e1e1e" stroke-width="1.5" fill="none" stroke-dasharray="1.5 7"></path></g></g><mask></mask><g stroke-linecap="round"><g transform="translate(884.0413006947223 556.555879598856) rotate(0 167.5 38.5)"><path d="M1.37 -1.34 C58.02 11.69, 281.42 62.37, 337.22 75.64" stroke="#1e1e1e" stroke-width="2.5" fill="none" stroke-dasharray="8 10"></path></g><g transform="translate(884.0413006947223 556.555879598856) rotate(0 167.5 38.5)"><path d="M311.45 80.26 C316.52 78.77, 323.48 76.23, 336.9 74.6" stroke="#1e1e1e" stroke-width="2.5" fill="none"></path></g><g transform="translate(884.0413006947223 556.555879598856) rotate(0 167.5 38.5)"><path d="M315.31 63.6 C319.44 65.52, 325.61 66.37, 336.9 74.6" stroke="#1e1e1e" stroke-width="2.5" fill="none"></path></g></g><mask></mask><g stroke-linecap="round"><g transform="translate(621.0413006947223 685.555879598856) rotate(0 -34.5 -55)"><path d="M-0.41 0.27 C-12.45 -3.05, -70.73 -1.39, -70.45 -19.88 C-70.17 -38.38, -10.6 -95.25, 1.29 -110.71" stroke="#1e1e1e" stroke-width="2.5" fill="none" stroke-dasharray="8 10"></path></g><g transform="translate(621.0413006947223 685.555879598856) rotate(0 -34.5 -55)"><path d="M-7.9 -87.86 C-3.89 -95.73, -1.79 -104.43, -0.58 -108.72" stroke="#1e1e1e" stroke-width="2.5" fill="none"></path></g><g transform="translate(621.0413006947223 685.555879598856) rotate(0 -34.5 -55)"><path d="M-20.6 -99.31 C-11.98 -103.01, -5.26 -107.54, -0.58 -108.72" stroke="#1e1e1e" stroke-width="2.5" fill="none"></path></g></g><mask></mask><g stroke-linecap="round"><g transform="translate(999.0413006947223 790.555879598856) rotate(0 -41 -60)"><path d="M2.46 2.56 C8.8 -7.81, 61.83 -39.05, 40.5 -59.54 C19.17 -80.03, -97.56 -110.32, -125.51 -120.37" stroke="#1e1e1e" stroke-width="2.5" fill="none" stroke-dasharray="8 10"></path></g><g transform="translate(999.0413006947223 790.555879598856) rotate(0 -41 -60)"><path d="M-98.71 -123.36 C-112.01 -121.26, -120.13 -121.97, -125.39 -118.42" stroke="#1e1e1e" stroke-width="2.5" fill="none"></path></g><g transform="translate(999.0413006947223 790.555879598856) rotate(0 -41 -60)"><path d="M-103.78 -107.03 C-115.27 -111.29, -121.43 -118.33, -125.39 -118.42" stroke="#1e1e1e" stroke-width="2.5" fill="none"></path></g></g><mask></mask></svg>